<svg width="498" height="497" viewBox="0 0 498 497" fill="none" xmlns="http://www.w3.org/2000/svg">
<g clip-path="url(#clip0_176_11)">
<path d="M289.82 18.67L293.98 23.83C315.91 51.01 312.53 90.64 286.31 113.71L127.93 253.06C126.43 254.38 124.15 254.23 122.84 252.73L119.22 248.59C95.48 221.46 98.27 180.22 125.44 156.53L284.1 18.16C285.8 16.67 288.4 16.9 289.82 18.66V18.67Z" fill="#AD46FF"/>
<path d="M0.0200058 266.51C-0.339994 263.05 4.47001 261.81 5.82001 265.02C34.14 332.3 122.87 459.15 246.72 424.04C396.86 381.48 438.8 173.62 442.88 151.36C443.1 150.17 442.47 148.99 441.36 148.52C439.09 147.55 435.3 146.42 433.23 148.43L240.99 318.18C225.83 331.43 202.7 329.43 190.03 313.79L170.4 289.56C168.82 287.61 169.06 284.77 170.94 283.11L490.58 0.650012C492.14 -0.729988 494.62 0.210012 494.87 2.28001C498.06 28.6 509.35 158.87 444.22 311.44C417.79 373.36 339.22 481.44 246.72 494.51C109.62 513.89 30.75 411.49 15.11 388.81C13.23 386.08 12.06 382.93 11.72 379.63L0.0200058 266.51Z" fill="#AD46FF"/>
</g>
<defs>
<clipPath id="clip0_176_11">
<rect width="497.66" height="496.94" fill="white"/>
</clipPath>
</defs>
</svg>
